<svg xmlns="http://www.w3.org/2000/svg" viewBox="0 0 400 300">
  <defs>
    <linearGradient id="bg" x1="0%" y1="0%" x2="100%" y2="100%">
      <stop offset="0%" style="stop-color:#FF9F45"/>
      <stop offset="50%" style="stop-color:#FF6B6B"/>
      <stop offset="100%" style="stop-color:#DDA0DD"/>
    </linearGradient>
    <linearGradient id="pot" x1="0%" y1="0%" x2="0%" y2="100%">
      <stop offset="0%" style="stop-color:#4A4A4A"/>
      <stop offset="100%" style="stop-color:#2D2D2D"/>
    </linearGradient>
    <linearGradient id="coin" x1="0%" y1="0%" x2="100%" y2="100%">
      <stop offset="0%" style="stop-color:#FFD700"/>
      <stop offset="100%" style="stop-color:#FFA500"/>
    </linearGradient>
  </defs>
  
  <!-- Background -->
  <rect width="400" height="300" fill="url(#bg)"/>
  
  <!-- Decorative circles -->
  <circle cx="50" cy="50" r="30" fill="rgba(255,255,255,0.1)"/>
  <circle cx="350" cy="250" r="40" fill="rgba(255,255,255,0.1)"/>
  <circle cx="380" cy="30" r="20" fill="rgba(255,255,255,0.1)"/>
  
  <!-- Steam lines -->
  <path d="M160 80 Q165 60 160 40" stroke="white" stroke-width="4" fill="none" opacity="0.6" stroke-linecap="round"/>
  <path d="M200 70 Q205 50 200 30" stroke="white" stroke-width="4" fill="none" opacity="0.6" stroke-linecap="round"/>
  <path d="M240 80 Q245 60 240 40" stroke="white" stroke-width="4" fill="none" opacity="0.6" stroke-linecap="round"/>
  
  <!-- Cooking pot -->
  <ellipse cx="200" cy="180" rx="80" ry="60" fill="url(#pot)"/>
  <ellipse cx="200" cy="130" rx="70" ry="15" fill="#5A5A5A"/>
  <ellipse cx="200" cy="130" rx="60" ry="12" fill="#8B4513"/>
  
  <!-- Pot handles -->
  <rect x="100" y="150" width="20" height="30" rx="5" fill="#4A4A4A"/>
  <rect x="280" y="150" width="20" height="30" rx="5" fill="#4A4A4A"/>
  
  <!-- Ingredients in pot -->
  <text x="170" y="145" font-size="24">🥚</text>
  <text x="195" y="140" font-size="24">🧈</text>
  <text x="215" y="148" font-size="24">🧂</text>
  
  <!-- Floating coins -->
  <circle cx="320" cy="100" r="20" fill="url(#coin)" stroke="#B8860B" stroke-width="2"/>
  <text x="312" y="108" font-size="18" fill="#8B6914">$</text>
  
  <circle cx="80" cy="180" r="16" fill="url(#coin)" stroke="#B8860B" stroke-width="2"/>
  <text x="74" y="186" font-size="14" fill="#8B6914">$</text>
  
  <circle cx="340" cy="200" r="14" fill="url(#coin)" stroke="#B8860B" stroke-width="2"/>
  <text x="335" y="205" font-size="12" fill="#8B6914">$</text>
  
  <!-- Chef hat -->
  <ellipse cx="60" cy="100" rx="25" ry="20" fill="white"/>
  <rect x="45" y="100" width="30" height="25" fill="white"/>
  <rect x="40" y="120" width="40" height="8" fill="#F5F5F5" rx="2"/>
  
  <!-- Recipe book -->
  <rect x="300" cy="220" width="60" height="45" fill="#8B4513" rx="3" transform="rotate(-15 330 242)"/>
  <rect x="305" y="223" width="50" height="39" fill="#FFF8DC" rx="2" transform="rotate(-15 330 242)"/>
  <line x1="330" y1="225" x2="330" y2="260" stroke="#8B4513" stroke-width="2" transform="rotate(-15 330 242)"/>
  
  <!-- Title area -->
  <text x="200" y="270" font-family="Comic Sans MS, cursive" font-size="28" fill="white" text-anchor="middle" font-weight="bold">
    Cozy Kitchen
  </text>
  <text x="200" y="290" font-family="Arial" font-size="12" fill="rgba(255,255,255,0.8)" text-anchor="middle">
    Cook • Sell • Earn!
  </text>
</svg>
